<svg data-v-423bf9ae="" xmlns="http://www.w3.org/2000/svg" viewBox="0 0 409 90" class="iconLeftSlogan"><!----><!----><!----><g data-v-423bf9ae="" id="0cee0a8a-2a73-48ac-9fa7-a33d1143324b" fill="#08403F" transform="matrix(5.203314861015978,0,0,5.203314861015978,104.55678290801296,-18.263634397287667)"><path d="M1.77 4.34L1.82 4.76L1.82 4.76Q2.67 3.82 3.48 4.44L3.48 4.44L3.48 4.44Q4.28 5.06 4.10 6.12L4.10 6.12L4.10 6.12Q3.92 7.18 2.68 7.69L2.68 7.69L1.85 8.11L1.81 4.25L1.81 4.25Q1.69 3.90 1.11 3.53L1.11 3.53L0.23 4.24L0.30 4.44L0.30 4.44Q0.77 4.14 0.69 5.61L0.69 5.61L0.69 11.22L0.69 11.22Q0.68 12.38 1.48 12.76L1.48 12.76L2.45 11.84L2.32 11.58L2.32 11.58Q1.91 11.93 1.83 10.95L1.83 10.95L1.84 8.50L1.84 8.50Q3.10 7.85 4.67 11.88L4.67 11.88L4.67 11.88Q5.11 12.74 5.87 12.72L5.87 12.72L6.58 11.84L6.48 11.59L6.48 11.59Q6.02 12.20 5.13 10.02L5.13 10.02L5.13 10.02Q4.23 7.83 3.03 7.88L3.03 7.88L3.03 7.88Q4.42 7.49 5.05 6.53L5.05 6.53L5.05 6.53Q5.67 5.57 5.28 4.66L5.28 4.66L5.28 4.66Q4.89 3.75 3.82 3.55L3.82 3.55L3.82 3.55Q2.75 3.35 1.77 4.34L1.77 4.34ZM8.08 3.68L7.35 4.38L7.35 4.38Q7.90 4.68 8.02 5.35L8.02 5.35L8.02 5.35Q9.02 4.81 8.80 4.32L8.80 4.32L8.80 4.32Q8.58 3.83 8.08 3.68L8.08 3.68ZM7.51 7.41L7.51 7.41Q7.83 7.39 7.75 9.19L7.75 9.19L7.75 9.19Q7.72 11.33 7.77 11.84L7.77 11.84L7.77 11.84Q7.81 12.35 8.37 12.68L8.37 12.68L9.17 11.84L9.17 11.84Q8.73 11.73 8.78 10.31L8.78 10.31L8.78 10.31Q8.80 7.65 8.79 7.25L8.79 7.25L8.79 7.25Q8.77 6.85 8.42 6.45L8.42 6.45L7.40 7.22L7.51 7.41ZM15.47 3.96L14.60 4.72L14.60 4.72Q15.60 5.32 14.73 6.91L14.73 6.91L14.73 6.91Q13.72 6.34 12.58 6.78L12.58 6.78L12.58 6.78Q11.45 7.21 10.80 7.98L10.80 7.98L10.80 7.98Q10.16 8.76 10.15 9.70L10.15 9.70L10.15 9.70Q10.14 10.64 10.94 11.21L10.94 11.21L10.94 11.21Q11.74 11.79 13.04 11.18L13.04 11.18L13.04 11.18Q13.28 11.81 13.90 11.73L13.90 11.73L13.90 11.73Q14.51 11.65 15.03 11.96L15.03 11.96L15.03 11.96Q15.54 12.26 15.17 13.17L15.17 13.17L15.17 13.17Q14.81 14.07 13.53 14.09L13.53 14.09L13.53 14.09Q12.25 14.10 11.43 13.46L11.43 13.46L11.43 13.46Q10.60 12.81 11.13 12.40L11.13 12.40L11.01 12.24L9.75 13.24L9.75 13.24Q10.52 14.63 11.82 14.93L11.82 14.93L11.82 14.93Q13.12 15.23 13.99 14.72L13.99 14.72L13.99 14.72Q14.87 14.21 15.26 13.78L15.26 13.78L15.26 13.78Q15.65 13.35 15.93 12.80L15.93 12.80L15.93 12.80Q16.21 12.25 16.12 11.49L16.12 11.49L16.12 11.49Q16.04 10.74 15.04 10.66L15.04 10.66L15.04 10.66Q14.04 10.58 14.22 10.47L14.22 10.47L14.22 10.47Q14.40 10.35 14.66 10.08L14.66 10.08L14.66 10.08Q14.92 9.80 15.34 9.00L15.34 9.00L15.34 9.00Q15.76 8.20 14.88 7.09L14.88 7.09L14.88 7.09Q16.28 5.89 16.11 5.00L16.11 5.00L16.11 5.00Q15.95 4.12 15.47 3.96L15.47 3.96ZM13.05 7.24L13.05 7.24L13.05 7.24Q13.64 7.44 13.96 7.89L13.96 7.89L13.96 7.89Q14.29 8.33 14.32 9.18L14.32 9.18L14.32 9.18Q14.36 10.04 13.70 10.45L13.70 10.45L13.70 10.45Q13.04 10.87 12.42 10.62L12.42 10.62L12.42 10.62Q11.79 10.36 11.41 9.74L11.41 9.74L11.41 9.74Q11.02 9.11 11.13 8.53L11.13 8.53L11.13 8.53Q11.24 7.96 11.85 7.50L11.85 7.50L11.85 7.50Q12.47 7.03 13.05 7.24ZM17.94 3.51L16.89 4.14L16.89 4.14Q17.14 4.59 17.11 5.50L17.11 5.50L17.11 5.50Q17.08 11.40 17.20 11.88L17.20 11.88L17.20 11.88Q17.32 12.37 17.79 12.71L17.79 12.71L18.67 11.96L18.67 11.96Q18.30 11.46 18.23 10.78L18.23 10.78L18.23 10.78Q18.16 10.10 18.23 8.21L18.23 8.21L18.23 8.21Q19.13 7.25 20.27 7.23L20.27 7.23L20.27 7.23Q21.40 7.21 21.23 9.29L21.23 9.29L21.23 9.29Q21.19 11.34 21.32 11.82L21.32 11.82L21.32 11.82Q21.46 12.30 21.95 12.68L21.95 12.68L22.76 11.88L22.76 11.88Q22.37 11.82 22.28 11.01L22.28 11.01L22.28 11.01Q22.18 10.20 22.25 8.76L22.25 8.76L22.25 8.76Q22.30 7.88 22.11 7.35L22.11 7.35L22.11 7.35Q21.92 6.82 21.26 6.58L21.26 6.58L21.26 6.58Q20.61 6.33 20.00 6.50L20.00 6.50L20.00 6.50Q19.39 6.67 18.98 7.01L18.98 7.01L18.98 7.01Q18.57 7.36 18.26 7.55L18.26 7.55L18.23 4.85L18.23 4.85Q18.27 3.89 17.94 3.51L17.94 3.51ZM25.10 3.96L24.24 4.63L24.24 4.63Q24.72 4.55 24.56 6.59L24.56 6.59L23.99 6.62L23.05 7.56L23.21 7.83L23.21 7.83Q23.65 7.33 24.48 7.41L24.48 7.41L24.48 7.41Q24.34 11.04 24.48 11.58L24.48 11.58L24.48 11.58Q24.62 12.11 25.20 12.68L25.20 12.68L25.20 12.68Q25.65 12.24 26.92 11.30L26.92 11.30L26.84 10.98L26.84 10.98Q25.54 11.88 25.44 10.99L25.44 10.99L25.44 10.99Q25.33 10.09 25.46 7.46L25.46 7.46L26.29 7.46L26.92 6.75L26.87 6.61L25.50 6.64L25.50 4.83L25.50 4.83Q25.43 4.25 25.10 3.96L25.10 3.96ZM31.95 3.56L30.60 4.62L30.72 4.83L30.72 4.83Q31.36 4.31 31.36 6.58L31.36 6.58L31.36 6.58Q31.29 10.88 31.38 11.53L31.38 11.53L31.38 11.53Q31.48 12.19 32.10 12.69L32.10 12.69L33.14 11.79L33.14 11.55L33.14 11.55Q32.59 11.93 32.47 10.46L32.47 10.46L32.47 10.46Q32.35 9.00 32.40 6.41L32.40 6.41L35.52 10.70L35.52 10.70Q35.51 11.05 35.58 11.63L35.58 11.63L35.58 11.63Q35.66 12.22 36.14 12.70L36.14 12.70L37.19 11.79L37.16 11.56L37.16 11.56Q36.70 11.96 36.58 10.48L36.58 10.48L36.58 10.48Q36.46 9.00 36.54 6.91L36.54 6.91L36.54 5.97L36.55 4.62L36.55 4.62Q36.55 4.00 36.11 3.53L36.11 3.53L34.80 4.55L34.91 4.87L34.91 4.87Q35.50 4.23 35.51 6.12L35.51 6.12L35.51 8.96L32.40 4.79L32.40 4.79Q32.53 4.08 31.95 3.56L31.95 3.56ZM40.17 6.45L40.17 6.45Q39.03 7.21 38.55 7.77L38.55 7.77L38.55 7.77Q38.08 8.33 37.88 8.89L37.88 8.89L37.88 8.89Q37.69 9.46 37.82 10.32L37.82 10.32L37.82 10.32Q37.95 11.17 38.81 11.96L38.81 11.96L38.81 11.96Q39.68 12.75 40.20 12.75L40.20 12.75L40.20 12.75Q40.72 12.76 41.84 11.73L41.84 11.73L41.84 11.73Q42.27 11.34 42.66 10.82L42.66 10.82L42.66 10.82Q43.05 10.31 43.17 9.74L43.17 9.74L43.17 9.74Q43.28 9.17 43.10 8.50L43.10 8.50L43.10 8.50Q42.93 7.83 42.12 7.04L42.12 7.04L42.12 7.04Q41.32 6.25 40.17 6.45L40.17 6.45ZM39.81 7.26L39.81 7.26L39.81 7.26Q40.60 7.08 41.54 8.24L41.54 8.24L41.54 8.24Q42.47 9.41 42.27 10.23L42.27 10.23L42.27 10.23Q42.08 11.06 41.42 11.56L41.42 11.56L41.42 11.56Q40.76 12.05 40.02 11.45L40.02 11.45L40.02 11.45Q39.29 10.84 38.85 10.15L38.85 10.15L38.85 10.15Q38.41 9.46 38.72 8.45L38.72 8.45L38.72 8.45Q39.03 7.43 39.81 7.26ZM45.57 3.96L44.71 4.63L44.71 4.63Q45.19 4.55 45.03 6.59L45.03 6.59L44.45 6.62L43.52 7.56L43.67 7.83L43.67 7.83Q44.11 7.33 44.95 7.41L44.95 7.41L44.95 7.41Q44.81 11.04 44.95 11.58L44.95 11.58L44.95 11.58Q45.08 12.11 45.66 12.68L45.66 12.68L45.66 12.68Q46.12 12.24 47.39 11.30L47.39 11.30L47.30 10.98L47.30 10.98Q46.01 11.88 45.90 10.99L45.90 10.99L45.90 10.99Q45.80 10.09 45.92 7.46L45.92 7.46L46.76 7.46L47.39 6.75L47.33 6.61L45.97 6.64L45.97 4.83L45.97 4.83Q45.90 4.25 45.57 3.96L45.57 3.96ZM51.24 6.60L51.24 6.60L51.24 6.60Q50.18 6.43 49.25 7.26L49.25 7.26L49.25 7.26Q48.32 8.09 48.06 9.20L48.06 9.20L48.06 9.20Q47.80 10.31 48.22 11.26L48.22 11.26L48.22 11.26Q48.64 12.22 49.78 12.62L49.78 12.62L49.78 12.62Q50.71 12.93 51.71 12.18L51.71 12.18L51.71 12.18Q52.72 11.43 52.83 10.84L52.83 10.84L52.62 10.68L52.62 10.68Q51.80 11.85 51.02 11.81L51.02 11.81L51.02 11.81Q50.24 11.76 49.86 11.46L49.86 11.46L49.86 11.46Q49.47 11.15 49.26 10.80L49.26 10.80L51.15 9.54L51.15 9.54Q52.60 8.65 52.45 7.70L52.45 7.70L52.45 7.70Q52.31 6.76 51.24 6.60ZM48.81 8.75L48.81 8.75L48.81 8.75Q48.82 8.12 49.32 7.58L49.32 7.58L49.32 7.58Q49.83 7.04 50.43 7.19L50.43 7.19L50.43 7.19Q51.02 7.34 51.26 8.00L51.26 8.00L51.26 8.00Q51.50 8.67 51.20 9.02L51.20 9.02L51.20 9.02Q50.91 9.37 49.08 10.40L49.08 10.40L49.08 10.40Q48.92 10.04 48.86 9.71L48.86 9.71L48.86 9.71Q48.80 9.37 48.81 8.75ZM56.15 6.53L56.15 6.53L56.15 6.53Q55.49 6.63 55.04 6.92L55.04 6.92L55.04 6.92Q54.58 7.21 54.23 7.57L54.23 7.57L54.23 7.57Q53.87 7.94 53.77 8.43L53.77 8.43L53.77 8.43Q53.68 8.93 54.10 9.37L54.10 9.37L54.10 9.37Q54.53 9.80 55.58 10.02L55.58 10.02L55.58 10.02Q56.64 10.24 57.04 10.47L57.04 10.47L57.04 10.47Q57.44 10.70 57.52 11.11L57.52 11.11L57.52 11.11Q57.61 11.53 57.32 11.79L57.32 11.79L57.32 11.79Q57.02 12.05 56.24 11.93L56.24 11.93L56.24 11.93Q55.46 11.81 55.05 11.55L55.05 11.55L55.05 11.55Q54.65 11.29 54.29 10.89L54.29 10.89L54.29 10.89Q53.93 10.50 54.20 10.34L54.20 10.34L54.11 10.25L53.34 10.84L53.34 10.84Q53.22 11.20 53.61 11.70L53.61 11.70L53.61 11.70Q54.00 12.21 54.58 12.52L54.58 12.52L54.58 12.52Q55.17 12.82 55.89 12.80L55.89 12.80L55.89 12.80Q56.62 12.78 57.22 12.34L57.22 12.34L57.22 12.34Q57.82 11.90 58.12 11.35L58.12 11.35L58.12 11.35Q58.42 10.81 58.33 10.36L58.33 10.36L58.33 10.36Q58.24 9.91 57.82 9.56L57.82 9.56L57.82 9.56Q57.41 9.20 56.10 8.95L56.10 8.95L56.10 8.95Q54.80 8.70 54.74 8.09L54.74 8.09L54.74 8.09Q54.69 7.48 55.28 7.31L55.28 7.31L55.28 7.31Q55.88 7.14 56.59 7.45L56.59 7.45L56.59 7.45Q57.31 7.76 57.03 8.13L57.03 8.13L57.11 8.24L57.92 7.40L57.92 7.40Q57.82 6.93 57.32 6.68L57.32 6.68L57.32 6.68Q56.81 6.43 56.15 6.53Z"></path></g><defs data-v-423bf9ae=""><linearGradient data-v-423bf9ae="" gradientTransform="rotate(25)" id="c028fa91-0bc5-4040-a167-ac0921d4578f" x1="0%" y1="0%" x2="100%" y2="0%"><stop data-v-423bf9ae="" offset="0%" style="stop-color: rgb(65, 226, 150); stop-opacity: 1;"></stop><stop data-v-423bf9ae="" offset="100%" style="stop-color: rgb(0, 196, 238); stop-opacity: 1;"></stop></linearGradient></defs><g data-v-423bf9ae="" id="8f316e26-5daa-440f-a0f0-f6036a5da4f9" transform="matrix(1.6491068260682482,0,0,1.6491068260682482,-39.45533501256911,-38.20532814349252)" stroke="none" fill="url(#c028fa91-0bc5-4040-a167-ac0921d4578f)"><path d="M24.1 75.2l5.6-9.8L71 24.1c.9-.9 2.6-.9 3.6 0l.7.7c.5.5.7 1.1.7 1.8s-.3 1.3-.7 1.8L33.8 69.7l-9.7 5.5zm6.3-9.1l-3.7 6.5 6.5-3.7 41.3-41.3c.3-.3.4-.7.4-1.1 0-.4-.2-.8-.4-1.1l-.7-.7c-.6-.6-1.6-.6-2.1 0L30.4 66.1z"></path><path d="M55.1 38.6l-.7-.7 11.3-11.3 1.4 1.4-.7.7-.7-.7zM30.356 66.127l2.829 2.829-.707.707-2.829-2.829z"></path><g><path d="M24 77h39v1H24z"></path></g></g><!----><g data-v-423bf9ae="" id="f7f772ae-f782-44d8-af4e-a7efb1e04c34" fill="#08403F" transform="matrix(0.7683208203946373,0,0,0.7683208203946373,105.6767133606536,57.77187016836584)"><path d="M0.10 3.51C0.10 3.75 0.21 3.77 0.38 3.77L0.88 3.77C0.97 3.77 3.11 10.99 3.14 11.07C3.49 12.14 3.60 12.99 3.91 12.99C4.13 12.99 4.23 12.67 4.51 12.26C4.66 12.05 4.76 12.01 4.90 11.66L6.89 6.45C6.96 6.29 6.99 6.20 7.01 6.20C7.04 6.20 7.07 6.29 7.11 6.45C7.71 8.51 8.39 11.03 8.40 11.07C8.75 12.14 8.86 12.99 9.17 12.99C9.39 12.99 9.49 12.67 9.77 12.26C9.93 12.05 10.02 12.01 10.16 11.66L13.26 4.06C13.36 3.81 13.36 3.77 13.72 3.77C13.96 3.77 14.01 3.71 14.01 3.53C14.01 3.32 13.97 3.26 13.78 3.26C13.64 3.26 13.33 3.30 12.82 3.30C12.08 3.30 11.58 3.26 11.38 3.26C11.20 3.26 11.10 3.28 11.10 3.51C11.10 3.75 11.21 3.77 11.38 3.77L12.29 3.77C12.36 3.77 12.38 3.81 12.38 3.95C12.38 4.63 10.78 8.72 10.07 10.63C9.93 10.99 9.86 11.17 9.81 11.17C9.76 11.17 9.70 10.99 9.58 10.60C9.49 10.30 8.57 7.18 8.04 5.22C7.99 5.05 7.78 4.17 7.78 3.85C7.78 3.81 7.78 3.79 7.80 3.77L8.68 3.77C8.86 3.77 8.96 3.75 8.96 3.56C8.96 3.32 8.92 3.26 8.72 3.26C8.40 3.26 7.46 3.30 7.04 3.30C6.62 3.30 5.71 3.26 5.49 3.26C5.31 3.26 5.21 3.28 5.21 3.51C5.21 3.75 5.32 3.77 5.49 3.77L6.29 3.77C6.33 3.77 6.51 4.27 6.66 4.83C6.72 5.05 6.76 5.15 6.76 5.25C6.76 5.31 6.76 5.38 6.72 5.49L4.72 10.60C4.62 10.82 4.59 10.95 4.55 10.95C4.51 10.95 4.48 10.84 4.40 10.60C4.31 10.32 3.30 7.27 2.70 5.22C2.66 5.08 2.34 3.96 2.32 3.85C2.34 3.77 2.38 3.77 2.42 3.77L3.12 3.77C3.35 3.77 3.42 3.75 3.42 3.56C3.42 3.32 3.37 3.26 3.18 3.26C2.86 3.26 2.14 3.30 1.72 3.30C1.30 3.30 0.60 3.26 0.38 3.26C0.20 3.26 0.10 3.28 0.10 3.51ZM21.63 3.51C21.63 3.72 21.70 3.79 21.90 3.79L22.71 3.77C22.81 3.77 22.85 6.61 22.85 8.55L22.85 10.42C22.85 11.30 22.83 12.18 22.79 12.18L22.19 12.18C21.97 12.18 21.90 12.19 21.90 12.39C21.90 12.63 21.94 12.68 22.13 12.68C22.26 12.68 23.09 12.64 23.51 12.64C23.93 12.64 24.70 12.68 25.02 12.68C25.19 12.68 25.21 12.61 25.21 12.40C25.21 12.24 25.19 12.18 25.02 12.18L24.21 12.18C24.14 12.18 24.05 9.18 24.05 8.37C24.05 8.30 24.05 8.26 24.16 8.26C24.56 8.26 25.16 8.27 25.45 8.27C27.69 8.32 27.83 10.00 27.83 11.68L27.83 12.49C27.83 12.61 27.89 12.64 27.99 12.64C27.99 12.64 29.43 12.68 29.90 12.68C30.07 12.68 30.13 12.64 30.13 12.53C30.13 12.24 30.07 12.18 29.92 12.18L29.27 12.18C29.18 12.18 29.15 12.14 29.12 11.31C29.04 8.99 27.66 8.34 26.75 8.05C26.61 8.01 26.64 8.01 26.75 7.95C27.34 7.69 28.66 6.94 28.66 5.63C28.66 3.63 26.96 3.21 25.56 3.21C25.24 3.21 23.95 3.29 23.53 3.29C23.11 3.29 22.13 3.26 21.91 3.26C21.73 3.26 21.63 3.28 21.63 3.51ZM24.05 7.80L24.05 4.40C24.05 4.05 24.08 3.68 24.12 3.68C24.33 3.65 24.61 3.65 24.84 3.65C26.14 3.65 27.38 4.47 27.38 5.82C27.38 6.99 26.84 7.57 26.18 7.88C26.14 7.90 26.10 7.90 26.03 7.90C25.55 7.88 24.84 7.88 24.23 7.87C24.07 7.87 24.05 7.85 24.05 7.80ZM37.46 12.39C37.46 12.63 37.51 12.68 37.70 12.68C38.02 12.68 38.78 12.64 39.49 12.64C40.15 12.64 40.95 12.68 41.17 12.68C41.34 12.68 41.37 12.61 41.37 12.40C41.37 12.24 41.34 12.18 41.17 12.18L40.21 12.18C40.11 12.18 40.08 9.55 40.08 7.76L40.08 5.87C40.08 5.14 40.11 3.70 40.21 3.70L41.12 3.70C41.34 3.70 41.37 3.68 41.37 3.49C41.37 3.25 41.34 3.19 41.17 3.19C40.85 3.19 40.18 3.23 39.52 3.23C38.71 3.23 38.00 3.19 37.77 3.19C37.59 3.19 37.52 3.21 37.52 3.44C37.52 3.68 37.60 3.70 37.77 3.70L38.70 3.70C38.74 3.70 38.81 4.79 38.81 5.71L38.81 7.08C38.81 8.92 38.79 12.18 38.68 12.18L37.76 12.18C37.53 12.18 37.46 12.19 37.46 12.39ZM49 5.01C49 5.17 49.18 5.17 49.31 5.17C49.46 5.17 49.50 5.15 49.52 4.97L49.63 3.89C49.64 3.81 50.19 3.75 50.95 3.75L52.93 3.75C52.99 3.75 53.02 4.35 53.02 4.97C53.02 6.43 52.96 12.18 52.84 12.18L51.97 12.18C51.74 12.18 51.70 12.19 51.70 12.39C51.70 12.63 51.72 12.68 51.91 12.68C52.23 12.68 53.21 12.64 53.63 12.64C54.05 12.64 54.99 12.68 55.31 12.68C55.48 12.68 55.51 12.61 55.51 12.40C55.51 12.24 55.48 12.18 55.31 12.18L54.32 12.18C54.29 12.18 54.29 11.76 54.29 11.31C54.29 9.56 54.38 5.96 54.38 5.92C54.39 5.18 54.39 3.75 54.49 3.75L56.10 3.75C56.81 3.75 57.64 3.78 57.64 3.85C57.64 3.99 57.60 4.90 57.60 4.97C57.60 5.12 57.67 5.17 57.85 5.17C58.04 5.17 58.11 5.17 58.11 5.03C58.11 3.93 58.17 3.40 58.17 3.14C58.17 2.94 58.09 2.94 57.89 2.94C57.74 2.94 57.68 2.98 57.67 3.16C57.67 3.23 57.02 3.28 56.18 3.28L51.18 3.28C50.53 3.28 49.71 3.28 49.71 3.21L49.71 3.07C49.71 2.94 49.59 2.94 49.49 2.94C49.27 2.94 49.24 3.00 49.22 3.19C49.17 3.89 49 4.97 49 5.01ZM65.93 12.39C65.93 12.63 65.95 12.68 66.15 12.68C66.47 12.68 67.44 12.64 67.86 12.64C68.28 12.64 72.79 12.68 73.11 12.68C73.23 12.68 73.39 12.66 73.39 12.49C73.39 12.07 73.43 11.23 73.43 10.53C73.43 10.39 73.28 10.39 73.15 10.39C73.04 10.39 72.91 10.39 72.91 10.51C72.90 11.06 72.90 11.41 72.87 11.76C72.84 12.01 72.84 12.04 72.74 12.04C72.59 12.04 69.96 12.08 68.46 12.08C68.39 12.08 68.35 10.11 68.31 8.26C68.31 8.06 68.35 8.09 68.49 8.09L70.77 8.09C71.47 8.09 71.50 8.20 71.50 8.30L71.50 9.00C71.50 9.14 71.68 9.14 71.79 9.14C71.89 9.14 72.02 9.13 72.02 9.02C72.02 8.83 71.99 8.33 71.99 7.83C71.99 7.32 72.02 6.83 72.02 6.71C72.02 6.59 71.88 6.58 71.78 6.58C71.67 6.58 71.50 6.59 71.50 6.72L71.50 7.45C71.50 7.62 71.05 7.63 70.77 7.63L68.43 7.63C68.32 7.63 68.31 7.63 68.31 7.45C68.29 6.75 68.28 6.06 68.28 5.46C68.28 5.12 68.28 3.71 68.36 3.71C69.59 3.71 72.10 3.75 72.10 3.81C72.10 3.99 72.06 4.83 72.06 4.89C72.06 5.04 72.13 5.10 72.31 5.10C72.51 5.10 72.58 5.08 72.58 4.94C72.58 3.85 72.63 3.36 72.63 3.09C72.63 2.91 72.55 2.90 72.35 2.90C72.16 2.90 72.16 2.95 72.13 3.11C72.11 3.25 72.18 3.25 71.27 3.25C70.66 3.25 68.52 3.29 67.75 3.29C67.26 3.29 66.32 3.25 66.22 3.25C66.09 3.25 66.04 3.30 66.04 3.49C66.04 3.72 66.11 3.74 66.28 3.74L66.93 3.74C66.99 3.74 67.06 4.79 67.06 5.71C67.06 5.80 67.12 8.27 67.12 9.83L67.12 11.17C67.12 11.84 67.09 12.18 67.06 12.18L66.21 12.18C65.98 12.18 65.93 12.21 65.93 12.39ZM90.93 5.01C90.93 5.17 91.11 5.17 91.24 5.17C91.39 5.17 91.43 5.15 91.45 4.97L91.56 3.89C91.57 3.81 92.12 3.75 92.88 3.75L94.86 3.75C94.92 3.75 94.95 4.35 94.95 4.97C94.95 6.43 94.89 12.18 94.77 12.18L93.90 12.18C93.67 12.18 93.63 12.19 93.63 12.39C93.63 12.63 93.65 12.68 93.84 12.68C94.16 12.68 95.14 12.64 95.56 12.64C95.98 12.64 96.92 12.68 97.24 12.68C97.41 12.68 97.44 12.61 97.44 12.40C97.44 12.24 97.41 12.18 97.24 12.18L96.25 12.18C96.22 12.18 96.22 11.76 96.22 11.31C96.22 9.56 96.31 5.96 96.31 5.92C96.32 5.18 96.32 3.75 96.42 3.75L98.03 3.75C98.74 3.75 99.57 3.78 99.57 3.85C99.57 3.99 99.53 4.90 99.53 4.97C99.53 5.12 99.60 5.17 99.78 5.17C99.97 5.17 100.04 5.17 100.04 5.03C100.04 3.93 100.10 3.40 100.10 3.14C100.10 2.94 100.02 2.94 99.82 2.94C99.67 2.94 99.61 2.98 99.60 3.16C99.60 3.23 98.95 3.28 98.11 3.28L93.11 3.28C92.46 3.28 91.64 3.28 91.64 3.21L91.64 3.07C91.64 2.94 91.52 2.94 91.42 2.94C91.20 2.94 91.17 3.00 91.15 3.19C91.10 3.89 90.93 4.97 90.93 5.01ZM107.86 12.39C107.86 12.63 107.86 12.68 108.05 12.68C108.37 12.68 109.31 12.64 109.73 12.64C110.15 12.64 110.98 12.68 111.30 12.68C111.47 12.68 111.47 12.61 111.47 12.40C111.47 12.24 111.47 12.18 111.30 12.18L110.38 12.18C110.29 12.18 110.25 9.93 110.25 8.20C110.25 8.01 110.25 8.01 110.38 8.01L115.61 8.01C115.68 8.01 115.70 8.01 115.70 8.18L115.70 9.91C115.70 11.05 115.68 12.18 115.63 12.18L114.86 12.18C114.63 12.18 114.59 12.19 114.59 12.39C114.59 12.63 114.60 12.68 114.80 12.68C115.12 12.68 115.96 12.64 116.38 12.64C116.80 12.64 117.39 12.68 117.71 12.68C117.88 12.68 117.89 12.61 117.89 12.40C117.89 12.24 117.88 12.18 117.71 12.18L116.97 12.18C116.93 12.18 116.91 9.27 116.91 7.04C116.91 5.40 116.91 3.70 116.96 3.70L117.57 3.70C117.80 3.70 117.84 3.68 117.84 3.49C117.84 3.25 117.82 3.19 117.63 3.19C117.49 3.19 116.86 3.23 116.27 3.23C115.60 3.23 115.00 3.19 114.77 3.19C114.58 3.19 114.55 3.22 114.55 3.44C114.55 3.67 114.62 3.70 114.79 3.70L115.58 3.70C115.64 3.70 115.70 4.79 115.70 5.71L115.70 7.42C115.70 7.59 115.70 7.59 115.53 7.59L110.42 7.59C110.25 7.59 110.25 7.59 110.25 7.38C110.25 6.96 110.24 6.23 110.24 5.53C110.24 4.66 110.25 3.70 110.31 3.70L111.08 3.70C111.30 3.70 111.34 3.68 111.34 3.49C111.34 3.25 111.33 3.19 111.13 3.19C110.81 3.19 110.22 3.23 109.62 3.23C109.03 3.23 108.54 3.19 108.32 3.19C108.14 3.19 108.04 3.21 108.04 3.44C108.04 3.68 108.15 3.70 108.32 3.70L108.93 3.70C108.99 3.70 109.00 5.59 109.00 7.18L109.00 8.61C109.00 10.08 108.99 12.18 108.92 12.18L108.11 12.18C107.88 12.18 107.86 12.19 107.86 12.39ZM125.93 12.39C125.93 12.63 125.96 12.68 126.15 12.68C126.48 12.68 127.44 12.64 127.86 12.64C128.28 12.64 132.79 12.68 133.11 12.68C133.24 12.68 133.39 12.66 133.39 12.49C133.39 12.07 133.43 11.23 133.43 10.53C133.43 10.39 133.28 10.39 133.15 10.39C133.04 10.39 132.92 10.39 132.92 10.51C132.90 11.06 132.90 11.41 132.87 11.76C132.85 12.01 132.85 12.04 132.75 12.04C132.59 12.04 129.96 12.08 128.46 12.08C128.39 12.08 128.35 10.11 128.31 8.26C128.31 8.06 128.35 8.09 128.49 8.09L130.77 8.09C131.47 8.09 131.50 8.20 131.50 8.30L131.50 9.00C131.50 9.14 131.68 9.14 131.80 9.14C131.89 9.14 132.02 9.13 132.02 9.02C132.02 8.83 131.99 8.33 131.99 7.83C131.99 7.32 132.02 6.83 132.02 6.71C132.02 6.59 131.88 6.58 131.78 6.58C131.67 6.58 131.50 6.59 131.50 6.72L131.50 7.45C131.50 7.62 131.05 7.63 130.77 7.63L128.44 7.63C128.32 7.63 128.31 7.63 128.31 7.45C128.30 6.75 128.28 6.06 128.28 5.46C128.28 5.12 128.28 3.71 128.37 3.71C129.60 3.71 132.10 3.75 132.10 3.81C132.10 3.99 132.06 4.83 132.06 4.89C132.06 5.04 132.13 5.10 132.31 5.10C132.51 5.10 132.58 5.08 132.58 4.94C132.58 3.85 132.64 3.36 132.64 3.09C132.64 2.91 132.55 2.90 132.36 2.90C132.16 2.90 132.16 2.95 132.13 3.11C132.12 3.25 132.19 3.25 131.28 3.25C130.66 3.25 128.52 3.29 127.75 3.29C127.26 3.29 126.32 3.25 126.22 3.25C126.10 3.25 126.04 3.30 126.04 3.49C126.04 3.72 126.11 3.74 126.28 3.74L126.94 3.74C126.99 3.74 127.06 4.79 127.06 5.71C127.06 5.80 127.12 8.27 127.12 9.83L127.12 11.17C127.12 11.84 127.09 12.18 127.06 12.18L126.21 12.18C125.99 12.18 125.93 12.21 125.93 12.39ZM151.20 3.51C151.20 3.72 151.27 3.79 151.47 3.79L152.28 3.77C152.38 3.77 152.42 6.61 152.42 8.55L152.42 10.42C152.42 11.30 152.40 12.18 152.36 12.18L151.76 12.18C151.54 12.18 151.47 12.19 151.47 12.39C151.47 12.63 151.51 12.68 151.70 12.68C151.83 12.68 152.66 12.64 153.08 12.64C153.50 12.64 154.27 12.68 154.59 12.68C154.76 12.68 154.78 12.61 154.78 12.40C154.78 12.24 154.76 12.18 154.59 12.18L153.78 12.18C153.71 12.18 153.62 9.18 153.62 8.37C153.62 8.30 153.62 8.26 153.73 8.26C154.13 8.26 154.73 8.27 155.02 8.27C157.26 8.32 157.40 10.00 157.40 11.68L157.40 12.49C157.40 12.61 157.46 12.64 157.56 12.64C157.56 12.64 159.00 12.68 159.47 12.68C159.64 12.68 159.70 12.64 159.70 12.53C159.70 12.24 159.64 12.18 159.49 12.18L158.84 12.18C158.75 12.18 158.72 12.14 158.69 11.31C158.61 8.99 157.23 8.34 156.32 8.05C156.18 8.01 156.21 8.01 156.32 7.95C156.91 7.69 158.23 6.94 158.23 5.63C158.23 3.63 156.53 3.21 155.13 3.21C154.81 3.21 153.52 3.29 153.10 3.29C152.68 3.29 151.70 3.26 151.48 3.26C151.30 3.26 151.20 3.28 151.20 3.51ZM153.62 7.80L153.62 4.40C153.62 4.05 153.65 3.68 153.69 3.68C153.90 3.65 154.18 3.65 154.41 3.65C155.71 3.65 156.95 4.47 156.95 5.82C156.95 6.99 156.41 7.57 155.75 7.88C155.71 7.90 155.67 7.90 155.60 7.90C155.12 7.88 154.41 7.88 153.80 7.87C153.64 7.87 153.62 7.85 153.62 7.80ZM167.03 12.39C167.03 12.63 167.08 12.68 167.27 12.68C167.59 12.68 168.35 12.64 169.06 12.64C169.72 12.64 170.52 12.68 170.74 12.68C170.91 12.68 170.94 12.61 170.94 12.40C170.94 12.24 170.91 12.18 170.74 12.18L169.78 12.18C169.68 12.18 169.65 9.55 169.65 7.76L169.65 5.87C169.65 5.14 169.68 3.70 169.78 3.70L170.69 3.70C170.91 3.70 170.94 3.68 170.94 3.49C170.94 3.25 170.91 3.19 170.74 3.19C170.42 3.19 169.75 3.23 169.09 3.23C168.28 3.23 167.57 3.19 167.34 3.19C167.16 3.19 167.09 3.21 167.09 3.44C167.09 3.68 167.17 3.70 167.34 3.70L168.27 3.70C168.31 3.70 168.38 4.79 168.38 5.71L168.38 7.08C168.38 8.92 168.36 12.18 168.25 12.18L167.33 12.18C167.10 12.18 167.03 12.19 167.03 12.39ZM178.91 7.91C178.91 11.40 181.27 12.89 183.86 12.89C185.75 12.89 187.75 11.89 187.75 11.58C187.75 11.12 187.77 10.68 187.77 10.33C187.77 9.81 187.78 9.56 187.91 9.56L188.34 9.56C188.48 9.56 188.50 9.39 188.50 9.30C188.50 9.18 188.48 9.06 188.34 9.06C188.12 9.06 187.75 9.10 187.08 9.10C186.63 9.10 185.89 9.07 185.21 9.06C185.07 9.06 185.07 9.24 185.07 9.35C185.07 9.45 185.09 9.56 185.22 9.56L186.44 9.56C186.48 9.56 186.54 9.87 186.54 10.33C186.54 10.82 186.52 11.41 186.49 11.65C186.48 11.76 185.84 12.39 184.25 12.39C182.01 12.39 180.42 10.29 180.42 7.94C180.42 5.42 181.97 3.54 183.97 3.54C185.86 3.54 187.04 4.87 187.04 5.03C187.04 5.15 186.98 6.12 186.98 6.17C186.98 6.31 187.03 6.36 187.29 6.36C187.49 6.36 187.56 6.33 187.56 6.15C187.56 5.43 187.60 3.75 187.60 3.56C187.60 3.36 187.50 3.33 187.29 3.33C187.07 3.33 187.04 3.39 187.04 3.56L187.04 3.91C187.04 3.99 187.00 4.02 186.87 3.92C186.59 3.72 185.60 3.08 184.03 3.08C181.19 3.08 178.91 4.79 178.91 7.91ZM196.53 12.39C196.53 12.63 196.53 12.68 196.73 12.68C197.05 12.68 197.99 12.64 198.41 12.64C198.83 12.64 199.65 12.68 199.98 12.68C200.14 12.68 200.14 12.61 200.14 12.40C200.14 12.24 200.14 12.18 199.98 12.18L199.05 12.18C198.97 12.18 198.93 9.93 198.93 8.20C198.93 8.01 198.93 8.01 199.05 8.01L204.29 8.01C204.36 8.01 204.37 8.01 204.37 8.18L204.37 9.91C204.37 11.05 204.36 12.18 204.30 12.18L203.53 12.18C203.31 12.18 203.27 12.19 203.27 12.39C203.27 12.63 203.28 12.68 203.48 12.68C203.80 12.68 204.64 12.64 205.06 12.64C205.48 12.64 206.07 12.68 206.39 12.68C206.56 12.68 206.57 12.61 206.57 12.40C206.57 12.24 206.56 12.18 206.39 12.18L205.65 12.18C205.60 12.18 205.59 9.27 205.59 7.04C205.59 5.40 205.59 3.70 205.63 3.70L206.25 3.70C206.47 3.70 206.51 3.68 206.51 3.49C206.51 3.25 206.50 3.19 206.30 3.19C206.16 3.19 205.53 3.23 204.95 3.23C204.27 3.23 203.67 3.19 203.45 3.19C203.25 3.19 203.22 3.22 203.22 3.44C203.22 3.67 203.29 3.70 203.46 3.70L204.26 3.70C204.32 3.70 204.37 4.79 204.37 5.71L204.37 7.42C204.37 7.59 204.37 7.59 204.20 7.59L199.09 7.59C198.93 7.59 198.93 7.59 198.93 7.38C198.93 6.96 198.91 6.23 198.91 5.53C198.91 4.66 198.93 3.70 198.98 3.70L199.75 3.70C199.98 3.70 200.02 3.68 200.02 3.49C200.02 3.25 200.00 3.19 199.81 3.19C199.49 3.19 198.90 3.23 198.30 3.23C197.71 3.23 197.22 3.19 196.99 3.19C196.81 3.19 196.71 3.21 196.71 3.44C196.71 3.68 196.83 3.70 196.99 3.70L197.61 3.70C197.67 3.70 197.68 5.59 197.68 7.18L197.68 8.61C197.68 10.08 197.67 12.18 197.60 12.18L196.78 12.18C196.56 12.18 196.53 12.19 196.53 12.39ZM214.34 5.01C214.34 5.17 214.52 5.17 214.65 5.17C214.80 5.17 214.84 5.15 214.86 4.97L214.97 3.89C214.98 3.81 215.53 3.75 216.29 3.75L218.27 3.75C218.33 3.75 218.36 4.35 218.36 4.97C218.36 6.43 218.30 12.18 218.18 12.18L217.31 12.18C217.08 12.18 217.04 12.19 217.04 12.39C217.04 12.63 217.06 12.68 217.25 12.68C217.57 12.68 218.55 12.64 218.97 12.64C219.39 12.64 220.33 12.68 220.65 12.68C220.82 12.68 220.85 12.61 220.85 12.40C220.85 12.24 220.82 12.18 220.65 12.18L219.66 12.18C219.63 12.18 219.63 11.76 219.63 11.31C219.63 9.56 219.72 5.96 219.72 5.92C219.73 5.18 219.73 3.75 219.83 3.75L221.44 3.75C222.15 3.75 222.98 3.78 222.98 3.85C222.98 3.99 222.94 4.90 222.94 4.97C222.94 5.12 223.01 5.17 223.19 5.17C223.38 5.17 223.45 5.17 223.45 5.03C223.45 3.93 223.51 3.40 223.51 3.14C223.51 2.94 223.43 2.94 223.23 2.94C223.08 2.94 223.02 2.98 223.01 3.16C223.01 3.23 222.36 3.28 221.52 3.28L216.52 3.28C215.87 3.28 215.05 3.28 215.05 3.21L215.05 3.07C215.05 2.94 214.93 2.94 214.83 2.94C214.61 2.94 214.58 3.00 214.56 3.19C214.51 3.89 214.34 4.97 214.34 5.01ZM241.07 12.39C241.07 12.63 241.08 12.68 241.28 12.68C241.46 12.68 241.84 12.64 242.45 12.64C243.08 12.64 243.64 12.68 243.96 12.68C244.13 12.68 244.13 12.61 244.13 12.40C244.13 12.24 244.13 12.18 243.96 12.18L242.76 12.18C242.72 12.18 242.70 11.54 242.70 10.79C242.70 9.46 242.72 7.48 242.72 5.99C242.72 5.25 242.72 4.84 242.73 4.28C242.73 4.02 242.80 4.14 242.93 4.28L249.82 12.66C249.90 12.75 249.98 12.89 250.10 12.89C250.21 12.89 250.28 12.77 250.28 12.54C250.28 12.39 250.45 6.65 250.46 4.48C250.46 4.06 250.49 3.70 250.52 3.70L251.15 3.70C251.37 3.70 251.43 3.68 251.43 3.49C251.43 3.25 251.43 3.19 251.23 3.19C251.03 3.19 250.60 3.23 250.04 3.23C249.42 3.23 248.63 3.19 248.53 3.19C248.36 3.19 248.36 3.26 248.36 3.47C248.36 3.64 248.36 3.70 248.53 3.70L249.83 3.70C249.84 3.70 249.84 4.33 249.84 4.44C249.84 5.85 249.87 8.33 249.87 9.70L249.87 10.29C249.87 10.57 249.86 10.65 249.63 10.37L243.95 3.39C243.84 3.25 243.81 3.19 243.64 3.19C243.56 3.19 243.18 3.23 242.87 3.23C242.58 3.23 241.50 3.19 241.30 3.19C241.14 3.19 241.11 3.26 241.11 3.47C241.11 3.64 241.14 3.70 241.30 3.70L242.21 3.70C242.21 4.17 242.17 8.53 242.10 10.79C242.07 11.69 242.09 12.18 241.98 12.18L241.33 12.18C241.11 12.18 241.07 12.19 241.07 12.39ZM259.53 8.15C259.53 11.17 261.87 12.80 264.12 12.80C266.91 12.80 268.88 10.89 268.88 8.06C268.88 5.33 267.13 3.11 264.33 3.11C261.73 3.11 259.53 5.10 259.53 8.15ZM260.93 7.77C260.93 5.64 262.22 3.58 264.19 3.58C266.43 3.58 267.51 5.81 267.51 7.94C267.51 10.08 266.41 12.32 264.14 12.32C262.15 12.32 260.93 10.28 260.93 7.77ZM276.16 5.01C276.16 5.17 276.35 5.17 276.47 5.17C276.63 5.17 276.67 5.15 276.68 4.97L276.79 3.89C276.81 3.81 277.35 3.75 278.11 3.75L280.10 3.75C280.15 3.75 280.18 4.35 280.18 4.97C280.18 6.43 280.13 12.18 280.00 12.18L279.13 12.18C278.91 12.18 278.87 12.19 278.87 12.39C278.87 12.63 278.88 12.68 279.08 12.68C279.40 12.68 280.38 12.64 280.80 12.64C281.22 12.64 282.16 12.68 282.48 12.68C282.65 12.68 282.67 12.61 282.67 12.40C282.67 12.24 282.65 12.18 282.48 12.18L281.48 12.18C281.46 12.18 281.46 11.76 281.46 11.31C281.46 9.56 281.54 5.96 281.54 5.92C281.55 5.18 281.55 3.75 281.65 3.75L283.26 3.75C283.98 3.75 284.80 3.78 284.80 3.85C284.80 3.99 284.76 4.90 284.76 4.97C284.76 5.12 284.83 5.17 285.01 5.17C285.21 5.17 285.28 5.17 285.28 5.03C285.28 3.93 285.33 3.40 285.33 3.14C285.33 2.94 285.25 2.94 285.05 2.94C284.90 2.94 284.84 2.98 284.83 3.16C284.83 3.23 284.19 3.28 283.35 3.28L278.35 3.28C277.69 3.28 276.88 3.28 276.88 3.21L276.88 3.07C276.88 2.94 276.75 2.94 276.65 2.94C276.43 2.94 276.40 3.00 276.39 3.19C276.33 3.89 276.16 4.97 276.16 5.01ZM293.09 12.39C293.09 12.63 293.12 12.68 293.31 12.68C293.64 12.68 294.60 12.64 295.02 12.64C295.44 12.64 299.95 12.68 300.27 12.68C300.40 12.68 300.55 12.66 300.55 12.49C300.55 12.07 300.59 11.23 300.59 10.53C300.59 10.39 300.44 10.39 300.31 10.39C300.20 10.39 300.08 10.39 300.08 10.51C300.06 11.06 300.06 11.41 300.03 11.76C300.01 12.01 300.01 12.04 299.91 12.04C299.75 12.04 297.12 12.08 295.62 12.08C295.55 12.08 295.51 10.11 295.47 8.26C295.47 8.06 295.51 8.09 295.65 8.09L297.93 8.09C298.63 8.09 298.66 8.20 298.66 8.30L298.66 9.00C298.66 9.14 298.84 9.14 298.96 9.14C299.05 9.14 299.18 9.13 299.18 9.02C299.18 8.83 299.15 8.33 299.15 7.83C299.15 7.32 299.18 6.83 299.18 6.71C299.18 6.59 299.04 6.58 298.94 6.58C298.83 6.58 298.66 6.59 298.66 6.72L298.66 7.45C298.66 7.62 298.21 7.63 297.93 7.63L295.60 7.63C295.48 7.63 295.47 7.63 295.47 7.45C295.46 6.75 295.44 6.06 295.44 5.46C295.44 5.12 295.44 3.71 295.53 3.71C296.76 3.71 299.26 3.75 299.26 3.81C299.26 3.99 299.22 4.83 299.22 4.89C299.22 5.04 299.29 5.10 299.47 5.10C299.67 5.10 299.74 5.08 299.74 4.94C299.74 3.85 299.80 3.36 299.80 3.09C299.80 2.91 299.71 2.90 299.52 2.90C299.32 2.90 299.32 2.95 299.29 3.11C299.28 3.25 299.35 3.25 298.44 3.25C297.82 3.25 295.68 3.29 294.91 3.29C294.42 3.29 293.48 3.25 293.38 3.25C293.26 3.25 293.20 3.30 293.20 3.49C293.20 3.72 293.27 3.74 293.44 3.74L294.10 3.74C294.15 3.74 294.22 4.79 294.22 5.71C294.22 5.80 294.28 8.27 294.28 9.83L294.28 11.17C294.28 11.84 294.25 12.18 294.22 12.18L293.37 12.18C293.15 12.18 293.09 12.21 293.09 12.39ZM308.77 5.77C308.77 9.07 313.75 8.20 313.75 10.65C313.75 11.59 312.91 12.31 311.93 12.31C311.11 12.31 309.51 11.83 309.48 11.47L309.40 10.15C309.39 9.97 309.32 9.91 309.13 9.91L309.06 9.91C308.85 9.91 308.85 10.00 308.85 10.12C308.85 10.32 308.97 11.66 308.99 12.17C309.01 12.38 310.27 12.85 311.81 12.85C313.38 12.85 314.99 11.87 314.99 10.11C314.99 6.79 310.02 7.87 310.02 5.32C310.02 4.31 310.80 3.56 311.84 3.56C312.86 3.56 313.95 4.58 313.95 4.89C313.95 5.01 313.91 5.73 313.91 5.78C313.91 5.92 313.95 5.99 314.22 5.99C314.45 5.99 314.47 5.94 314.47 5.75C314.47 5.04 314.55 3.68 314.55 3.53C314.55 3.30 314.51 3.29 314.24 3.29C314.02 3.29 314.01 3.32 313.99 3.53C313.99 3.61 313.98 3.78 313.94 3.78C313.88 3.78 313.80 3.74 313.73 3.68C312.93 3.14 312.31 3.08 311.81 3.08C310.28 3.08 308.77 4.17 308.77 5.77Z"></path></g></svg>